<svg width="30" height="30" viewBox="0 0 30 30" fill="none" xmlns="http://www.w3.org/2000/svg">
<circle cx="15" cy="15" r="15" fill="#6B184E"/>
<circle cx="15" cy="15" r="11.5714" fill="white"/>
<path fill-rule="evenodd" clip-rule="evenodd" d="M13.1666 8.94342C13.1666 8.14624 13.8129 7.5 14.61 7.5C15.4072 7.5 16.0535 8.14624 16.0535 8.94342V14.1689C16.2267 14.3457 16.3677 14.5542 16.467 14.7849L21.2738 16.0729C22.0438 16.2792 22.5008 17.0707 22.2945 17.8407C22.0882 18.6107 21.2967 19.0677 20.5267 18.8613L15.3346 17.4701C15.1097 17.5566 14.8654 17.6039 14.61 17.6039C13.494 17.6039 12.5892 16.6992 12.5892 15.5832C12.5892 15.0325 12.8095 14.5334 13.1666 14.1689V8.94342Z" fill="#6B184E"/>
</svg>
