<svg width="38" height="40" viewBox="0 0 38 40" fill="none" xmlns="http://www.w3.org/2000/svg">
<path fill-rule="evenodd" clip-rule="evenodd" d="M3.04255 39.1966C2.90505 39.3072 2.74575 39.3942 2.56913 39.4494C1.82399 39.682 1.05257 39.2604 0.846116 38.5075L0.0511853 35.6089C-0.155272 34.8561 0.281413 34.0572 1.02655 33.8246C1.77168 33.5919 2.5431 34.0136 2.74956 34.7664L3.08542 35.9911L10.0361 33.1119C10.7953 32.7974 11.6386 33.1685 11.9196 33.9408C12.2005 34.7131 11.8128 35.5941 11.0536 35.9086L3.31915 39.1124C3.22779 39.1502 3.13522 39.1781 3.04255 39.1966Z" fill="#6B184E"/>
<path fill-rule="evenodd" clip-rule="evenodd" d="M34.615 39.1909C34.7523 39.3014 34.9115 39.3883 35.0879 39.4434C35.8324 39.6758 36.6031 39.2546 36.8093 38.5024L37.6035 35.6065C37.8098 34.8544 37.3735 34.0562 36.6291 33.8238C35.8846 33.5913 35.1139 34.0126 34.9076 34.7647L34.5721 35.9883L27.6277 33.1118C26.8692 32.7976 26.0267 33.1684 25.746 33.9399C25.4653 34.7115 25.8526 35.5917 26.6112 35.9059L34.3385 39.1067C34.4298 39.1446 34.5223 39.1725 34.615 39.1909Z" fill="#6B184E"/>
</svg>
