<svg width="38" height="40" viewBox="0 0 38 40" fill="none" xmlns="http://www.w3.org/2000/svg">
<path d="M32.5 21.4286C32.5 26.2715 30.9373 29.8876 28.5442 32.2886C26.145 34.6958 22.794 36 19 36C15.206 36 11.855 34.6958 9.45581 32.2886C7.06266 29.8876 5.5 26.2715 5.5 21.4286C5.5 16.5866 7.26369 11.5231 9.92081 7.68482C12.6189 3.78739 15.9752 1.5 19 1.5C22.0248 1.5 25.3811 3.78739 28.0792 7.68482C30.7363 11.5231 32.5 16.5866 32.5 21.4286Z" fill="#FFA726" stroke="#6B184E" stroke-width="3"/>
<circle cx="16" cy="18" r="1" fill="#6B184E"/>
<circle cx="22" cy="18" r="1" fill="#6B184E"/>
<path d="M22 20C22 24 16 24 16 20L22 20Z" fill="#6B184E"/>
</svg>
