<svg width="154" height="102" viewBox="0 0 154 102" fill="none" xmlns="http://www.w3.org/2000/svg">
<path d="M151.292 32.5358C145.581 7.80408 107.759 -4.57867 66.8157 4.87683C25.8727 14.3323 -2.6876 42.0465 3.02378 66.7782C3.11166 67.1601 3.20744 67.5376 3.3111 67.9139C6.02426 77.7784 14.4308 84.9962 24.4925 86.8519C31.0365 88.0587 36.4696 90.1161 41.0373 92.836C48.6664 97.3778 57.2656 100.088 66.1442 100.227C85.3065 100.528 106.86 93.5008 116.999 79.0448C119.787 75.0709 123.267 71.6186 127.244 68.8344C143.097 57.7407 153.57 45.1777 151.292 32.5358Z" fill="white"/>
<g opacity="0.3">
<g opacity="0.3">
<g opacity="0.3">
<g opacity="0.3">
<path opacity="0.3" d="M151.294 32.5358C153.571 45.1788 143.099 57.7395 127.246 68.8356C123.271 71.6152 119.788 75.0675 116.996 79.0426C106.862 93.503 85.3081 100.525 66.1458 100.225C57.2649 100.089 48.6691 97.3756 41.0401 92.8337C36.4723 90.1172 31.0415 88.0609 24.4918 86.8519C14.4358 84.9973 6.02474 77.7784 3.3127 67.9105C3.20792 67.5421 3.11214 67.1579 3.02426 66.7793C2.99496 66.6508 2.9668 66.5291 2.94314 66.3984C6.89683 72.8456 13.6099 77.375 21.2761 78.7936C27.8247 80.0026 33.2566 82.06 37.8244 84.7754C45.4546 89.3172 54.0504 92.0304 62.9301 92.1667C82.0924 92.4675 103.647 85.4447 113.78 70.9842C116.574 67.0148 120.054 63.5568 124.03 60.7772C139.879 49.6891 150.345 37.1373 148.083 24.4977C149.548 27.0013 150.636 29.6885 151.294 32.5358Z" fill="#6B184E"/>
</g>
</g>
</g>
</g>
<path d="M67.2593 101.926C66.874 101.926 66.4954 101.923 66.1168 101.917C57.2923 101.778 48.3213 99.14 40.1728 94.2883C35.6095 91.5718 30.2316 89.6293 24.1868 88.5138C13.3307 86.5116 4.4983 78.602 1.68261 68.3623C1.57332 67.9634 1.47191 67.5634 1.37839 67.1589C-1.52181 54.5982 3.75917 41.0065 16.2489 28.8863C28.5156 16.9835 46.3393 7.87164 66.4368 3.22952C86.5342 -1.4126 106.548 -1.03964 122.793 4.27964C139.333 9.6947 150.04 19.5953 152.94 32.1549L152.957 32.236C155.152 44.4148 146.827 57.1942 128.215 70.2191C124.357 72.9188 121.049 76.2145 118.383 80.0149C107.008 96.2319 84.0149 101.926 67.2593 101.926ZM94.0168 3.38727C85.4672 3.38727 76.4128 4.3957 67.1962 6.52296C27.2267 15.7542 -0.822111 42.6132 4.67069 66.3973C4.75407 66.7556 4.84421 67.1127 4.9411 67.4654C7.4154 76.4635 15.2101 83.421 24.7997 85.1888C31.2401 86.3764 36.9943 88.4609 41.9023 91.3825C49.5449 95.9333 57.9368 98.4065 66.1709 98.5361C83.4369 98.8346 105.436 92.5858 115.616 78.0724C118.509 73.9486 122.095 70.3746 126.276 67.4485C138.252 59.0679 152.019 46.2705 149.637 32.8749C145.387 14.5993 122.524 3.38727 94.0168 3.38727Z" fill="#6B184E"/>
<path opacity="0.3" d="M99.3591 37.3806C135.944 48.0992 85.9093 83.2069 44.5956 60.2363L99.3591 37.3806Z" fill="#6B184E"/>
<path d="M99.3587 37.3807C99.5322 38.1333 99.6663 38.886 99.7621 39.6386C100.173 42.8678 99.1548 46.1218 97.0016 48.5646C91.1246 55.228 82.5964 60.42 72.4828 62.7557C64.1022 64.6914 55.8366 64.3894 48.5816 62.2825C45.589 61.4138 43.0471 59.4003 41.6004 56.6398C40.7102 54.9407 40.0263 53.1177 39.5801 51.1865C36.3138 37.0449 47.0481 22.4876 63.5558 18.6747C80.0623 14.863 96.0934 23.2391 99.3587 37.3807Z" fill="#FFA726"/>
<path opacity="0.55" d="M97.3195 31.8935C90.7326 23.4824 78.4265 19.3034 65.8409 22.2092C49.3344 26.021 38.6 40.5794 41.8664 54.721C42.218 56.2443 42.7182 57.7068 43.356 59.0893C42.6664 58.3614 42.0715 57.5446 41.5982 56.6375C40.7115 54.9396 40.0265 53.1143 39.5814 51.1864C36.315 37.0449 47.0494 22.4876 63.5571 18.6747C77.7933 15.3869 91.6802 21.1648 97.3195 31.8935Z" fill="white"/>
<g opacity="0.3">
<g opacity="0.3">
<g opacity="0.3">
<g opacity="0.3">
<path opacity="0.3" d="M99.3589 37.3806C99.5324 38.1322 99.6664 38.8871 99.7645 39.6363C100.172 42.8667 99.156 46.1207 96.9984 48.5623C91.1236 55.2269 82.5931 60.42 72.483 62.7545C64.1013 64.6903 55.8379 64.3849 48.5817 62.2824C45.5903 61.4092 43.0472 59.3969 41.5971 56.6375C41.0372 55.5615 40.5515 54.428 40.1583 53.2528L40.4208 53.334C47.677 55.4364 55.9404 55.7418 64.3221 53.8061C74.4334 51.4715 82.9627 46.2784 88.8375 39.6127C90.9951 37.1711 92.0115 33.9171 91.6036 30.6867C91.5056 29.9375 91.3715 29.1826 91.198 28.431C90.7461 26.4773 90.0521 24.6407 89.1462 22.9191C94.2401 26.3556 97.9651 31.3447 99.3589 37.3806Z" fill="#6B184E"/>
</g>
</g>
</g>
</g>
<path d="M61.2568 65.7392C56.7499 65.7392 52.3196 65.1263 48.1101 63.9049C44.6545 62.9021 41.7362 60.5394 40.1025 57.424C39.1335 55.575 38.4034 53.6044 37.9335 51.5672C36.2412 44.239 37.9673 36.5998 42.7931 30.0546C47.5603 23.5883 54.7995 18.9631 63.1756 17.0285C71.5517 15.0939 80.0856 16.0776 87.2053 19.798C94.4119 23.5635 99.3132 29.6727 101.006 37.0009C101.19 37.7986 101.336 38.6144 101.439 39.4267C101.91 43.1269 100.755 46.8654 98.2698 49.6833C91.9477 56.8516 82.926 62.0785 72.8632 64.4029C68.9985 65.2942 65.1001 65.7392 61.2568 65.7392ZM71.5878 19.4397C69.0605 19.4397 66.4916 19.7315 63.9362 20.322C56.3454 22.0751 49.8036 26.244 45.513 32.0602C41.2822 37.7975 39.76 44.4542 41.227 50.8056C41.6326 52.5621 42.2613 54.2612 43.0973 55.8544C44.3052 58.1597 46.4764 59.9107 49.0532 60.6588C56.2981 62.7624 64.2685 62.9179 72.1027 61.1084C81.4827 58.9417 89.8757 54.09 95.7347 47.4468C97.5769 45.3578 98.4343 42.5895 98.0862 39.8526C97.9972 39.153 97.871 38.4488 97.7121 37.7614C96.2451 31.4112 91.9579 26.0953 85.6392 22.794C81.3903 20.5732 76.5679 19.4397 71.5878 19.4397Z" fill="#6B184E"/>
<g opacity="0.3">
<g opacity="0.3">
<g opacity="0.3">
<g opacity="0.3">
<path opacity="0.3" d="M122.958 27.3394C124.644 26.9501 125.859 25.9787 125.673 25.1698C125.486 24.361 123.968 24.0209 122.281 24.4103C120.595 24.7996 119.379 25.771 119.566 26.5799C119.753 27.3887 121.271 27.7288 122.958 27.3394Z" fill="#6B184E"/>
</g>
</g>
</g>
</g>
<g opacity="0.3">
<g opacity="0.3">
<g opacity="0.3">
<g opacity="0.3">
<path opacity="0.3" d="M26.0672 59.7248C26.2543 60.5338 25.0385 61.505 23.3518 61.8937C21.6651 62.2825 20.1474 61.9433 19.9604 61.1343C19.7733 60.3253 20.9891 59.3541 22.6758 58.9654C24.3614 58.5767 25.8802 58.9158 26.0672 59.7248Z" fill="#6B184E"/>
</g>
</g>
</g>
</g>
<g opacity="0.3">
<g opacity="0.3">
<g opacity="0.3">
<g opacity="0.3">
<path opacity="0.3" d="M30.2046 61.7596C30.2992 62.1675 29.5962 62.6779 28.6339 62.8999C27.6728 63.1219 26.8165 62.9709 26.723 62.5641C26.6284 62.1562 27.3314 61.6458 28.2937 61.4239C29.2559 61.2019 30.11 61.3518 30.2046 61.7596Z" fill="#6B184E"/>
</g>
</g>
</g>
</g>
<g opacity="0.3">
<g opacity="0.3">
<g opacity="0.3">
<g opacity="0.3">
<path opacity="0.3" d="M64.7385 76.646C64.8332 77.0539 64.1301 77.5643 63.1679 77.7863C62.2056 78.0082 61.3504 77.8573 61.2569 77.4505C61.1623 77.0426 61.8654 76.5322 62.8276 76.3103C63.7887 76.0872 64.6439 76.2382 64.7385 76.646Z" fill="#6B184E"/>
</g>
</g>
</g>
</g>
<g opacity="0.3">
<g opacity="0.3">
<g opacity="0.3">
<g opacity="0.3">
<path opacity="0.3" d="M128.744 30.5437C128.838 30.9516 128.135 31.462 127.173 31.6839C126.212 31.9059 125.355 31.7549 125.262 31.3482C125.167 30.9403 125.87 30.4299 126.833 30.2079C127.794 29.986 128.65 30.1358 128.744 30.5437Z" fill="#6B184E"/>
</g>
</g>
</g>
</g>
<g opacity="0.3">
<g opacity="0.3">
<g opacity="0.3">
<g opacity="0.3">
<path opacity="0.3" d="M68.7883 78.3365C69.75 78.1145 70.4533 77.6042 70.3592 77.1967C70.2651 76.7892 69.4092 76.6389 68.4476 76.861C67.4859 77.083 66.7826 77.5934 66.8767 78.0008C66.9708 78.4083 67.8266 78.5586 68.7883 78.3365Z" fill="#6B184E"/>
</g>
</g>
</g>
</g>
<g opacity="0.3">
<g opacity="0.3">
<g opacity="0.3">
<g opacity="0.3">
<path opacity="0.3" d="M132.316 24.8312C132.401 25.1996 131.885 25.6334 131.165 25.8001C130.445 25.9669 129.792 25.8024 129.706 25.434C129.62 25.0655 130.136 24.6317 130.856 24.465C131.578 24.2993 132.231 24.4627 132.316 24.8312Z" fill="#6B184E"/>
</g>
</g>
</g>
</g>
<g opacity="0.3">
<g opacity="0.3">
<g opacity="0.3">
<g opacity="0.3">
<path opacity="0.3" d="M29.4829 52.6894C29.5686 53.0579 29.0525 53.4917 28.3326 53.6584C27.6126 53.8252 26.9591 53.6607 26.8734 53.2922C26.7878 52.9238 27.3039 52.49 28.0238 52.3232C28.7449 52.1576 29.3984 52.321 29.4829 52.6894Z" fill="#6B184E"/>
</g>
</g>
</g>
</g>
<path opacity="0.3" d="M97.1138 17.0647C98.8001 16.6754 100.016 15.704 99.8288 14.8951C99.6421 14.0863 98.1237 13.7462 96.4374 14.1356C94.7512 14.525 93.5356 15.4963 93.7224 16.3052C93.9092 17.114 95.4276 17.4541 97.1138 17.0647Z" fill="#6B184E"/>
<path opacity="0.3" d="M104.609 15.3193C104.704 15.7272 104.001 16.2376 103.038 16.4596C102.077 16.6816 101.221 16.5317 101.127 16.1238C101.034 15.716 101.736 15.2056 102.698 14.9836C103.659 14.7616 104.514 14.9115 104.609 15.3193Z" fill="#6B184E"/>
<path opacity="0.2" d="M62.5532 34.859C64.4821 37.1249 61.3296 39.0347 57.9111 41.945C54.4926 44.8542 52.1028 47.6609 50.1749 45.3951C48.246 43.1292 49.4538 38.9344 52.8723 36.0241C56.2897 33.1149 60.6242 32.5932 62.5532 34.859Z" fill="#F2F2F2"/>
</svg>
