<svg width="53" height="40" viewBox="0 0 53 40" fill="none" xmlns="http://www.w3.org/2000/svg">
<path d="M17.5148 25.5C15.3588 25.9486 7.42864 26.4653 7.01477 27.5C6.01477 30 10.0928 30.0514 9.01477 30.5C7.93676 30.9486 1.65543 33.7056 2.01477 35.5C2.37411 37.2944 6.27005 37.486 12.3788 37.486C18.4875 37.486 38.6103 38.3832 40.7663 38.8318C42.9223 39.2804 46.2334 38.3458 45.5148 37C44.7961 35.6542 39.2181 35.2944 41.0148 33.5C42.4521 32.0645 43.5148 32.5 46.5148 32C47.9521 31.7009 53.6305 31.385 49.031 30.3083C43.2817 28.9625 32.6068 24.1542 17.5148 25.5Z" fill="white" stroke="#6B184E" stroke-width="1.60606"/>
<path d="M40.0148 31.7966C40.0148 33.9683 32.8699 35.7288 25.269 35.7288C13.4724 35.7288 11.0148 31.5106 11.0148 29.3389C11.0148 27.1672 18.1596 26.8813 25.7605 26.8813C33.3615 26.8813 40.0148 29.6249 40.0148 31.7966Z" fill="#D3BACA"/>
<path d="M36.5741 29.1751C36.5741 29.9237 36.4183 30.4299 36.1418 30.8092C35.8611 31.1942 35.3731 31.5619 34.4957 31.8723C32.6886 32.5116 29.62 32.7796 24.6268 32.7796C19.6801 32.7796 16.4456 32.2876 14.4791 31.4379C13.511 31.0196 12.9035 30.5371 12.536 30.0341C12.1763 29.542 11.9978 28.9647 11.9978 28.2576C11.9978 27.6623 12.2773 26.9074 12.913 26.0615C13.54 25.2271 14.4602 24.3777 15.5947 23.6142C17.871 22.0823 20.8781 20.9831 23.7944 20.9831C27.7473 20.9831 30.978 22.3138 33.2078 24.0355C35.4892 25.797 36.5741 27.8361 36.5741 29.1751Z" fill="#FFA726" stroke="#6B184E" stroke-width="1.9661"/>
<path opacity="0.2" d="M20.4043 23.4198C20.8973 24.3236 18.6438 25.0733 17.4893 26.3648C16.3349 27.6558 14.7265 30.1592 14.2339 29.2554C13.7409 28.3516 14.6937 26.6942 15.8482 25.4027C17.0022 24.1117 19.9114 22.516 20.4043 23.4198Z" fill="#F2F2F2"/>
<circle cx="21.8283" cy="25.8983" r="0.983051" fill="#6B184E"/>
<circle cx="27.7265" cy="25.8983" r="0.983051" fill="#6B184E"/>
<path d="M23.7944 28.8474C23.7944 27.8644 25.7605 27.8644 25.7605 28.8474" stroke="#6B184E" stroke-width="0.983051" stroke-linecap="round"/>
</svg>
